HIERARCHY
ROOT Hips
{
	OFFSET 0.000000 89.005402 0.000000
	CHANNELS 6 Xposition Yposition Zposition Xrotation Yrotation Zrotation
	JOINT Spine
	{
		OFFSET 0.116900 10.681000 0.373400
		CHANNELS 3 Xrotation Yrotation Zrotation
		JOINT Spine1
		{
			OFFSET 0.000000 13.840401 0.053500
			CHANNELS 3 Xrotation Yrotation Zrotation
			JOINT Spine2
			{
				OFFSET 0.000000 14.712700 -0.366200
				CHANNELS 3 Xrotation Yrotation Zrotation
				JOINT Neck
				{
					OFFSET 0.000000 35.415497 -3.314200
					CHANNELS 3 Xrotation Yrotation Zrotation
					JOINT Head
					{
						OFFSET 0.000000 16.899200 1.218300
						CHANNELS 3 Xrotation Yrotation Zrotation
						JOINT HeadTop_End
						{
							OFFSET 0.000000 22.206207 2.192500
							CHANNELS 3 Xrotation Yrotation Zrotation
							End Site
							{
								OFFSET 0.000000 22.314178 0.000000
							}
						}
					}
				}
				JOINT LeftShoulder
				{
					OFFSET 12.896400 26.716293 -4.548400
					CHANNELS 3 Xrotation Yrotation Zrotation
					JOINT LeftArm
					{
						OFFSET 19.027000 -4.857010 -1.718400
						CHANNELS 3 Xrotation Yrotation Zrotation
						JOINT LeftForeArm
						{
							OFFSET 24.179897 0.000000 0.000000
							CHANNELS 3 Xrotation Yrotation Zrotation
							JOINT LeftHand
							{
								OFFSET 27.156403 0.000000 0.000000
								CHANNELS 3 Xrotation Yrotation Zrotation
								JOINT LeftHandIndex1
								{
									OFFSET 16.441200 0.000000 0.000000
									CHANNELS 3 Xrotation Yrotation Zrotation
									JOINT LeftHandIndex2
									{
										OFFSET 4.821899 0.000000 0.000000
										CHANNELS 3 Xrotation Yrotation Zrotation
										JOINT LeftHandIndex3
										{
											OFFSET 6.386497 0.000000 0.000000
											CHANNELS 3 Xrotation Yrotation Zrotation
											JOINT LeftHandIndex4
											{
												OFFSET 5.188988 0.000000 0.000000
												CHANNELS 3 Xrotation Yrotation Zrotation
												End Site
												{
													OFFSET -0.178703 5.185913 0.000177
												}
											}
										}
									}
								}
								JOINT LeftHandThumb1
								{
									OFFSET 6.534897 -5.032593 5.900300
									CHANNELS 3 Xrotation Yrotation Zrotation
									JOINT LeftHandThumb2
									{
										OFFSET 3.818176 -2.204422 2.204423
										CHANNELS 3 Xrotation Yrotation Zrotation
										JOINT LeftHandThumb3
										{
											OFFSET 3.252098 -1.877594 1.877601
											CHANNELS 3 Xrotation Yrotation Zrotation
											JOINT LeftHandThumb4
											{
												OFFSET 5.251778 -3.032120 3.032117
												CHANNELS 3 Xrotation Yrotation Zrotation
												End Site
												{
													OFFSET 0.000023 6.780014 0.000000
												}
											}
										}
									}
								}
							}
						}
					}
				}
				JOINT RightShoulder
				{
					OFFSET -12.896300 26.716293 -4.548400
					CHANNELS 3 Xrotation Yrotation Zrotation
					JOINT RightArm
					{
						OFFSET -19.027000 -4.857010 -1.718400
						CHANNELS 3 Xrotation Yrotation Zrotation
						JOINT RightForeArm
						{
							OFFSET -24.179897 0.000000 0.000000
							CHANNELS 3 Xrotation Yrotation Zrotation
							JOINT RightHand
							{
								OFFSET -27.156403 0.000000 0.000000
								CHANNELS 3 Xrotation Yrotation Zrotation
								JOINT RightHandThumb1
								{
									OFFSET -6.591202 -4.852203 5.988100
									CHANNELS 3 Xrotation Yrotation Zrotation
									JOINT RightHandThumb2
									{
										OFFSET -3.818176 -2.204422 2.204423
										CHANNELS 3 Xrotation Yrotation Zrotation
										JOINT RightHandThumb3
										{
											OFFSET -3.252098 -1.877594 1.877601
											CHANNELS 3 Xrotation Yrotation Zrotation
											JOINT RightHandThumb4
											{
												OFFSET -5.251778 -3.032120 3.032117
												CHANNELS 3 Xrotation Yrotation Zrotation
												End Site
												{
													OFFSET -0.000023 6.780014 0.000000
												}
											}
										}
									}
								}
								JOINT RightHandIndex1
								{
									OFFSET -16.029404 0.000000 0.000000
									CHANNELS 3 Xrotation Yrotation Zrotation
									JOINT RightHandIndex2
									{
										OFFSET -5.213303 0.000000 0.000000
										CHANNELS 3 Xrotation Yrotation Zrotation
										JOINT RightHandIndex3
										{
											OFFSET -6.386528 0.000000 0.000000
											CHANNELS 3 Xrotation Yrotation Zrotation
											JOINT RightHandIndex4
											{
												OFFSET -5.189026 0.000000 0.000000
												CHANNELS 3 Xrotation Yrotation Zrotation
												End Site
												{
													OFFSET 0.236702 5.183624 0.001972
												}
											}
										}
									}
								}
							}
						}
					}
				}
			}
		}
	}
	JOINT LeftUpLeg
	{
		OFFSET 14.073000 -7.904099 -1.463000
		CHANNELS 3 Xrotation Yrotation Zrotation
		JOINT LeftLeg
		{
			OFFSET -0.109806 -34.073280 4.093200
			CHANNELS 3 Xrotation Yrotation Zrotation
			JOINT LeftFoot
			{
				OFFSET 0.109806 -29.899420 -6.319000
				CHANNELS 3 Xrotation Yrotation Zrotation
				JOINT LeftToeBase
				{
					OFFSET 1.551100 -14.988700 20.535801
					CHANNELS 3 Xrotation Yrotation Zrotation
					JOINT LeftToe_End
					{
						OFFSET 0.221200 0.570800 13.248301
						CHANNELS 3 Xrotation Yrotation Zrotation
						End Site
						{
							OFFSET 0.000000 13.262435 0.000000
						}
					}
				}
			}
		}
	}
	JOINT RightUpLeg
	{
		OFFSET -13.839300 -7.904099 -1.463000
		CHANNELS 3 Xrotation Yrotation Zrotation
		JOINT RightLeg
		{
			OFFSET 0.109694 -34.073219 4.093300
			CHANNELS 3 Xrotation Yrotation Zrotation
			JOINT RightFoot
			{
				OFFSET -0.109694 -29.899384 -6.319200
				CHANNELS 3 Xrotation Yrotation Zrotation
				JOINT RightToeBase
				{
					OFFSET -1.551100 -14.988700 20.535801
					CHANNELS 3 Xrotation Yrotation Zrotation
					JOINT RightToe_End
					{
						OFFSET -0.221200 0.570900 13.248299
						CHANNELS 3 Xrotation Yrotation Zrotation
						End Site
						{
							OFFSET 0.000000 13.262440 0.000000
						}
					}
				}
			}
		}
	}
}
MOTION
Frames: 5
Frame Time: 0.033333
-0.169777 83.213020 1.314649 -2.052388 9.021264 1.735581 8.045943 -1.247663 0.270113 4.216538 -0.159221 0.963146 4.218803 -0.146695 0.954681 4.724646 -1.591329 1.283267 5.736308 -6.194965 -0.787228 0.000001 -0.000000 -0.000000 2.460719 -13.205215 -5.102549 9.242819 -7.221835 -59.073548 -0.000002 -46.448517 0.000001 -6.474729 8.067031 9.545369 -2.794687 -7.426086 -18.827060 0.451178 2.455857 -20.817551 0.410269 2.345485 -19.840549 -0.000000 -0.000000 0.000001 -3.309738 12.419759 14.508777 4.485909 14.573018 1.246204 -0.579470 1.575001 2.538714 0.000002 0.000000 0.000003 -1.525495 -10.202593 0.641390 10.262091 19.560572 55.262582 -0.000032 71.810382 0.000018 -8.716670 -6.022187 -14.043008 -0.246292 -18.751811 -2.416325 5.402081 -17.174019 -0.808084 -0.465468 -8.962767 -3.038679 0.000000 -0.000000 -0.000002 -1.621156 5.875241 14.093683 0.434242 -2.423067 20.317837 0.426152 -2.401106 20.125368 0.000002 0.000001 0.000001 -13.534169 13.322698 3.406169 33.567060 9.792325 -0.633763 -16.827540 3.314117 -3.568189 -5.242609 0.000008 -0.000002 0.000000 -0.000001 -0.000000 -11.914251 -7.747463 -13.475848 32.641061 -8.795049 -0.137847 -16.503025 -2.972294 12.064499 -3.532989 0.000000 0.000004 0.000000 -0.000000 0.000000 
-0.668836 81.331917 1.205437 -3.022027 7.862489 2.478344 8.575916 -1.766832 1.394264 4.428607 -0.228995 1.085937 4.431971 -0.219817 1.073800 5.311018 -1.004566 -0.114249 6.791612 -4.389899 -3.067801 -0.000001 -0.000000 -0.000000 1.640113 -6.870662 -4.379001 12.798545 -10.736416 -63.437165 -0.000011 -37.798465 -0.000001 -6.696818 6.049260 8.773198 -2.698177 -7.550626 -18.086571 0.456700 2.470293 -20.945863 0.439234 2.424215 -20.536827 -0.000000 -0.000001 -0.000002 -3.309737 12.419761 14.508778 4.485908 14.573016 1.246199 -0.579472 1.575001 2.538715 -0.000001 -0.000000 0.000003 -1.005708 -6.670837 -1.573614 2.814676 20.679265 54.777912 0.000008 78.926183 0.000000 -8.184493 -2.035344 -14.401882 -0.246296 -18.751813 -2.416326 5.402076 -17.174026 -0.808084 -0.465468 -8.962768 -3.038679 -0.000002 0.000000 -0.000001 -1.595856 5.912100 13.847379 0.428176 -2.406636 20.173898 0.435093 -2.425352 20.337863 0.000002 0.000001 0.000000 -21.046325 15.636863 7.347589 48.010387 9.931424 -1.375372 -16.284872 0.499593 -5.352194 -14.509986 0.000034 0.000005 -0.000000 0.000004 0.000000 -14.759050 -7.688408 -14.693767 40.087282 -7.032014 -0.445791 -20.587606 -3.223654 12.704806 -1.655973 -0.000000 0.000003 0.000000 -0.000000 0.000000 
-0.812729 78.780907 1.102560 -3.464048 6.820088 2.661779 8.899457 -2.160246 2.778372 5.050909 -0.285231 1.070620 5.054558 -0.284314 1.053395 5.044721 -0.593712 -0.909129 6.942308 -2.869134 -4.940599 -0.000003 -0.000000 -0.000000 0.882941 -1.563407 -3.856245 17.990585 -10.059629 -66.001907 -0.000006 -32.376152 -0.000021 -6.833715 4.561393 7.626758 -2.584140 -7.693569 -17.226801 0.446815 2.444326 -20.715219 0.458660 2.475404 -20.991263 0.000000 -0.000001 -0.000001 -3.309738 12.419759 14.508777 4.485910 14.573020 1.246200 -0.579468 1.575003 2.538715 0.000002 0.000000 0.000004 -0.366147 -3.689821 -3.251364 -7.585719 24.723760 54.034057 0.000016 83.887284 -0.000010 -7.412215 1.863511 -14.345141 -0.246297 -18.751811 -2.416325 5.402078 -17.174026 -0.808084 -0.465467 -8.962771 -3.038681 0.000003 -0.000004 0.000003 -1.582129 5.931988 13.714103 0.419479 -2.382825 19.965527 0.436739 -2.429753 20.376500 0.000001 0.000001 -0.000002 -32.278671 15.567231 13.123572 64.043078 5.923827 -2.131514 -10.621479 -0.528399 -5.481628 -17.924167 -0.022371 0.471086 0.000000 0.000002 0.000000 -19.164775 -7.950640 -16.312385 48.891867 -3.999435 -0.282224 -25.124219 -3.533983 11.879562 -0.176696 0.000003 -0.000002 -0.000000 0.000000 0.000000 
-0.672479 76.153305 1.194402 -3.768057 6.086983 2.609421 9.466302 -2.473778 4.098370 5.944784 -0.337993 0.973138 5.947994 -0.349847 0.949049 3.764052 -0.344006 -1.088072 6.061372 -1.600872 -6.361852 -0.000003 -0.000000 -0.000000 0.361030 2.319585 -3.675574 25.014992 -4.869304 -67.089615 -0.000002 -30.775979 0.000030 -6.845201 4.819860 6.445303 -2.462922 -7.840772 -16.329866 0.424062 2.383351 -20.175006 0.461327 2.482322 -21.052856 0.000001 -0.000000 0.000001 -3.309737 12.419758 14.508775 4.485908 14.573016 1.246203 -0.579470 1.575003 2.538719 -0.000000 0.000001 0.000004 0.283609 -0.963579 -4.098304 -20.207444 30.470625 53.110851 -0.000475 85.541549 0.000523 -6.911000 2.839082 -14.322375 -0.246295 -18.751811 -2.416325 5.402076 -17.174024 -0.808083 -0.465471 -8.962768 -3.038681 -0.000001 0.000001 0.000000 -1.565527 5.955893 13.553810 0.411768 -2.361510 19.779246 0.430576 -2.413114 20.230604 -0.000001 0.000001 0.000001 -43.732342 12.800723 18.882454 75.200048 0.047478 -2.821322 0.983023 -1.259224 -4.528644 -29.502859 -0.533271 1.309041 0.000000 -0.000001 -0.000000 -22.697658 -7.713228 -18.089568 56.673290 -1.093652 0.431191 -29.405764 -3.739308 10.850288 -0.000074 0.000008 -0.000003 0.000000 -0.000000 -0.000000 
-0.547380 73.845573 1.409336 -4.320811 5.603760 2.495999 10.683920 -2.873651 5.132869 6.774817 -0.405714 0.927579 6.777628 -0.431437 0.895208 1.792951 -0.137263 -0.938275 4.625393 -0.352112 -7.373841 0.000002 0.000000 0.000000 0.028911 5.276723 -3.867719 32.605175 3.061885 -68.211747 0.000006 -31.664521 0.000019 -6.787678 6.800322 5.560322 -2.343151 -7.981675 -15.459672 0.395276 2.303557 -19.470989 0.447589 2.446388 -20.733531 -0.000001 -0.000000 -0.000000 -3.309737 12.419759 14.508773 4.485908 14.573013 1.246200 -0.579471 1.574996 2.538718 -0.000001 0.000003 0.000000 0.980089 2.347891 -4.331636 -33.559161 36.254405 51.597278 -0.000101 83.822855 0.000075 -7.078717 -0.915336 -14.732266 -0.246296 -18.751813 -2.416326 5.402079 -17.174024 -0.808085 -0.465473 -8.962768 -3.038679 0.000000 -0.000001 0.000001 -1.520748 6.019651 13.124506 0.408104 -2.351331 19.690179 0.419770 -2.383637 19.972510 0.000003 0.000001 0.000002 -52.872050 7.694213 24.762871 79.873434 -4.384073 -3.185724 15.040937 -1.040144 -10.069045 -36.490125 -2.965602 4.230354 0.000000 0.000001 -0.000000 -24.621503 -6.915776 -19.457582 62.836395 0.982000 1.410483 -33.120765 -3.884267 10.001146 -0.000126 -0.000005 0.000001 -0.000000 -0.000001 0.000000 
